<svg id="Layer_1" data-name="Layer 1" xmlns="http://www.w3.org/2000/svg" viewBox="0 0 700 400"><defs><style>.cls-1{fill:#010101;}</style></defs><g id="g1"><path id="path6" class="cls-1" d="M174.44,80.56a104.12,104.12,0,0,0-33.89.12,2,2,0,0,0-1.85,2.18l0,86.18a1,1,0,0,0,1.16,1.16l51.87-.07a.61.61,0,0,1,.69.68V332.37a1.74,1.74,0,0,1-1.33,1.69q-30.9,7.41-65.39,0a.57.57,0,0,1-.45-.56l0-103.87a.91.91,0,0,1,1-1l15.14.08a.56.56,0,0,1,.63.63l0,89.92a.62.62,0,0,0,.61.69,123,123,0,0,0,31.88-.28,1,1,0,0,0,.9-1V187.74a.63.63,0,0,0-.63-.63h0l-52.31-.06a.73.73,0,0,1-.73-.73h0q-.21-57.13,0-113.45c0-1.47.06-3,.17-4.65a1.08,1.08,0,0,1,.7-1A33.19,33.19,0,0,1,129.58,65q29.73-6,62.22,1.1a.85.85,0,0,1,.67.83v82.82a.89.89,0,0,1-.9.89l-14.47.06a1.57,1.57,0,0,1-1.57-1.57l0-67.31a1.14,1.14,0,0,0-1.06-1.25Z"/><path id="path7" class="cls-1" d="M30.82,256.49c-11.2-27.3-15-56.56-8.48-85.42,4-17.81,9.67-32.82,20.06-48.26A137.94,137.94,0,0,1,74.16,89.32C83.9,82,95.34,74.88,107,70.62c.43-.15.65,0,.65.45V329.13a.5.5,0,0,1-.5.5.41.41,0,0,1-.19,0,170.88,170.88,0,0,1-16.87-8.19A160.76,160.76,0,0,1,71.82,309,138.17,138.17,0,0,1,46.2,282.89c-3.89-5.09-7-10.87-10.4-16.38a70.85,70.85,0,0,1-5-10ZM45.27,156.08q-16.58,44.55.13,88.21,8.73,22.77,27,42.27C77.52,292,83.43,296.28,89,301a.65.65,0,0,0,.91-.08.59.59,0,0,0,.15-.4V100.61c0-1.39-.56-1.67-1.68-.83A129.55,129.55,0,0,0,56.5,134a121.38,121.38,0,0,0-11.23,22.11Z"/><path id="path8" class="cls-1" d="M224,100V301a.38.38,0,0,0,.36.38.48.48,0,0,0,.23-.07,129.09,129.09,0,0,0,33-34.12c3.56-5.35,6.31-11.46,9.28-17.3,6-11.81,8.95-26.43,9.92-39.74a1.05,1.05,0,0,1,1.17-1.1l16.25,0a.55.55,0,0,1,.55.54v.06q-4.1,50.54-37.54,86.53a129.16,129.16,0,0,1-38.92,28.45l-10.23,4.8c-.78.38-1.17.13-1.17-.74L206.57,71a.52.52,0,0,1,.52-.53.78.78,0,0,1,.21,0q34.14,14.17,55.81,41.05c9.21,11.43,16.51,25.09,22.83,38.6a1.07,1.07,0,0,1-.51,1.43,1,1,0,0,1-.46.1H269.5a2.69,2.69,0,0,1-2.67-1.73,124.35,124.35,0,0,0-32.76-43.6c-3-2.6-5.57-5.11-9.24-6.86-.53-.26-.8-.09-.8.51Z"/></g><path id="path8-1" class="cls-1" d="M668.6,311.32H658.45c-.2,0-.3-.11-.3-.34l.09-25.13-11.83-35.7c-.06-.23,0-.34.26-.34h9.84c.29,0,.46.11.52.34l6.52,23.79,6.65-23.79a.4.4,0,0,1,.43-.34h9.93c.23,0,.32.11.25.34l-11.95,35.36L669,311A.31.31,0,0,1,668.6,311.32Z"/><path id="path10" class="cls-1" d="M633.63,311.32h-10c-.26,0-.39-.14-.39-.43V260.47H611.79a.38.38,0,0,1-.43-.43l.08-9.89a.31.31,0,0,1,.35-.34h33.58c.32,0,.48.11.48.34V260c0,.29-.11.43-.35.43H633.89l.09,50.42c0,.29-.12.43-.35.43Z"/><path id="path12" class="cls-1" d="M606.65,311.32h-10a.38.38,0,0,1-.43-.43l.09-60.74a.3.3,0,0,1,.34-.34h9.93a.31.31,0,0,1,.35.34l.08,60.74c0,.29-.11.43-.34.43Z"/><path id="path14" class="cls-1" d="M564.82,311.32H556c-.46,0-.7-.2-.7-.6l-.08-60.22a.61.61,0,0,1,.69-.69h8l14.94,34.84-.44-34.15q0-.69.78-.69h8.76c.35,0,.52.23.52.69l.09,60.31c0,.34-.15.51-.44.51h-7.76L565,278.77l.65,31.86c0,.46-.28.69-.82.69Z"/><path id="path16" class="cls-1" d="M530.8,312.19a16.34,16.34,0,0,1-8.64-2.42,18.23,18.23,0,0,1-6.34-6.48,17.69,17.69,0,0,1-2.33-8.93l.17-44.21c0-.23.11-.34.35-.34h9.92a.31.31,0,0,1,.35.34v44.21a7.34,7.34,0,0,0,1.9,5.09,6,6,0,0,0,4.62,2.07,6.18,6.18,0,0,0,4.75-2.07,7.39,7.39,0,0,0,1.9-5.09V250.15a.3.3,0,0,1,.34-.34h9.93a.31.31,0,0,1,.35.34l.17,44.21a17.92,17.92,0,0,1-2.33,9,18.45,18.45,0,0,1-6.31,6.47,16.59,16.59,0,0,1-8.8,2.38Z"/><path id="path18" class="cls-1" d="M477.4,311.32h-10c-.23,0-.34-.14-.34-.43l.17-60.74c0-.23.11-.34.35-.34h10.79a.73.73,0,0,1,.6.34L487,261.81l8-11.66a.79.79,0,0,1,.65-.34h10.84c.25,0,.39.11.39.34l.17,60.74c0,.29-.12.43-.35.43h-10c-.23,0-.35-.14-.35-.43l-.08-45.11L487,279.25l-9.19-13.47-.09,45.11c0,.29-.11.43-.34.43Z"/><path id="path20" class="cls-1" d="M429.91,311.32h-10c-.23,0-.34-.14-.34-.43l.17-60.74a.31.31,0,0,1,.35-.34h10.79a.73.73,0,0,1,.6.34l8.08,11.66,8-11.66a.76.76,0,0,1,.64-.34h10.84c.26,0,.39.11.39.34l.17,60.74c0,.29-.11.43-.34.43h-10c-.23,0-.35-.14-.35-.43l-.08-45.11-9.28,13.47-9.2-13.47-.09,45.11C430.25,311.18,430.14,311.32,429.91,311.32Z"/><path id="path22" class="cls-1" d="M395.5,312.19a16.4,16.4,0,0,1-8.68-2.42,18.94,18.94,0,0,1-6.34-6.43,17.35,17.35,0,0,1-2.38-8.9l.09-28a16.8,16.8,0,0,1,2.37-8.85,17.78,17.78,0,0,1,6.31-6.35,16.81,16.81,0,0,1,17.31,0,17.89,17.89,0,0,1,6.22,6.39,17,17,0,0,1,2.37,8.85l.09,28a17.31,17.31,0,0,1-2.33,8.85,18.4,18.4,0,0,1-6.31,6.48A16.32,16.32,0,0,1,395.5,312.19Zm0-10.67a6.11,6.11,0,0,0,4.66-2.15,7.16,7.16,0,0,0,2-4.93l-.09-28a7.09,7.09,0,0,0-1.85-5,6.12,6.12,0,0,0-4.71-2,6.3,6.3,0,0,0-4.66,2,6.84,6.84,0,0,0-1.94,5v28a7.13,7.13,0,0,0,1.94,5A6.16,6.16,0,0,0,395.5,301.52Z"/><path id="path24" class="cls-1" d="M355.35,312.19a16.55,16.55,0,0,1-8.76-2.42,18,18,0,0,1-6.26-6.47,18.37,18.37,0,0,1-2.29-9.11l.09-27.59a17.79,17.79,0,0,1,2.24-8.89,17.51,17.51,0,0,1,6.18-6.44,17.16,17.16,0,0,1,17.57-.08,18,18,0,0,1,8.5,15.41v4.06a.3.3,0,0,1-.34.34h-9.93a.31.31,0,0,1-.35-.34V266.6a7.28,7.28,0,0,0-1.9-5.05,6.11,6.11,0,0,0-4.75-2.12,5.75,5.75,0,0,0-4.83,2.16,7.94,7.94,0,0,0-1.69,5v27.59a7.61,7.61,0,0,0,1.9,5.31,6.11,6.11,0,0,0,4.62,2,6,6,0,0,0,4.75-2.25,7.76,7.76,0,0,0,1.9-5.09v-4.1a.31.31,0,0,1,.35-.35h10a.31.31,0,0,1,.35.35v4.1a18,18,0,0,1-2.33,9.06,18.9,18.9,0,0,1-6.26,6.52,16.27,16.27,0,0,1-8.77,2.42Z"/><path id="path38" class="cls-1" d="M573.28,229.68H544.7c-.23,0-.35-.14-.35-.43l.09-60.74a.31.31,0,0,1,.34-.35h28.41c.23,0,.34.15.34.43v9.89a.31.31,0,0,1-.34.35H555.06v13.81h18.13a.31.31,0,0,1,.34.35l.09,10a.31.31,0,0,1-.34.35H555.06V218.8h18.22c.23,0,.34.15.34.43v10.1C573.62,229.57,573.51,229.68,573.28,229.68Z"/><path id="path40" class="cls-1" d="M520.57,230.54a16.55,16.55,0,0,1-8.77-2.41,18.09,18.09,0,0,1-6.26-6.48,18.32,18.32,0,0,1-2.29-9.11l.09-27.58a17.83,17.83,0,0,1,2.24-8.9,17.48,17.48,0,0,1,6.18-6.43,17.19,17.19,0,0,1,17.57-.09,18,18,0,0,1,8.5,15.42v4a.31.31,0,0,1-.34.35h-9.93a.31.31,0,0,1-.35-.35v-4a7.3,7.3,0,0,0-1.9-5.06,6.1,6.1,0,0,0-4.74-2.11,5.77,5.77,0,0,0-4.84,2.16,7.93,7.93,0,0,0-1.68,5v27.58a7.53,7.53,0,0,0,1.9,5.31,6.08,6.08,0,0,0,4.62,2,6,6,0,0,0,4.74-2.24,7.79,7.79,0,0,0,1.9-5.1v-4.1a.31.31,0,0,1,.35-.35h10a.31.31,0,0,1,.35.35v4.1a18.1,18.1,0,0,1-2.33,9.07,19,19,0,0,1-6.26,6.52A16.25,16.25,0,0,1,520.57,230.54Z"/><path id="path42" class="cls-1" d="M472,229.68H462c-.23,0-.34-.14-.34-.43l.17-60.74a.31.31,0,0,1,.35-.35H480a17.24,17.24,0,0,1,8.8,2.33,17.75,17.75,0,0,1,6.39,6.26,17.7,17.7,0,0,1,1.43,14.77,18.28,18.28,0,0,1-2.33,4.44,13.85,13.85,0,0,1-2.38,2.68,18,18,0,0,1,4.79,12.48l.09,18.13a.38.38,0,0,1-.43.43h-10c-.23,0-.34-.09-.34-.26v-18.3a7.71,7.71,0,0,0-2.25-5.53,7.36,7.36,0,0,0-5.52-2.33h-5.83l-.09,26C472.34,229.54,472.23,229.68,472,229.68Zm8-50.94h-7.6v13.9H480a6.8,6.8,0,0,0,4.83-2,6.73,6.73,0,0,0,.09-9.8A6.72,6.72,0,0,0,480,178.74Z"/><path id="path44" class="cls-1" d="M437.25,230.54a16.33,16.33,0,0,1-8.64-2.41,18.23,18.23,0,0,1-6.34-6.48,17.71,17.71,0,0,1-2.34-8.94l.18-44.2a.31.31,0,0,1,.34-.35h9.93a.31.31,0,0,1,.35.35v44.2a7.35,7.35,0,0,0,1.9,5.1,6,6,0,0,0,4.62,2.07,6.16,6.16,0,0,0,4.74-2.07,7.35,7.35,0,0,0,1.9-5.1v-44.2a.31.31,0,0,1,.35-.35h9.93a.31.31,0,0,1,.34.35l.18,44.2a17.87,17.87,0,0,1-2.33,9,18.4,18.4,0,0,1-6.31,6.48,16.67,16.67,0,0,1-8.8,2.37Z"/><path id="path46" class="cls-1" d="M396.92,230.54a16.36,16.36,0,0,1-8.67-2.41,18.91,18.91,0,0,1-6.35-6.44,17.3,17.3,0,0,1-2.37-8.89l.08-28a16.72,16.72,0,0,1,2.38-8.85,17.64,17.64,0,0,1,6.3-6.34,16.84,16.84,0,0,1,17.31-.05,18.05,18.05,0,0,1,6.22,6.39,17,17,0,0,1,2.37,8.85l.09,28a17.37,17.37,0,0,1-2.33,8.85,18.48,18.48,0,0,1-6.31,6.48A16.28,16.28,0,0,1,396.92,230.54Zm0-10.66a6.16,6.16,0,0,0,4.67-2.16,7.19,7.19,0,0,0,2-4.92l-.08-28a7.07,7.07,0,0,0-1.86-5,6.12,6.12,0,0,0-4.71-2,6.31,6.31,0,0,0-4.66,2,6.91,6.91,0,0,0-1.94,5v28a7.18,7.18,0,0,0,1.94,5,6.18,6.18,0,0,0,4.66,2.07Z"/><path id="path48" class="cls-1" d="M357.08,230.54a16.39,16.39,0,0,1-8.68-2.41,18.5,18.5,0,0,1-6.3-6.44,17.46,17.46,0,0,1-2.33-8.89v-4.06c0-.31.14-.47.43-.47h9.93c.23,0,.34.16.34.47v4.06a7.14,7.14,0,0,0,1.95,5,6.28,6.28,0,0,0,9.36,0,7.2,7.2,0,0,0,2-5q0-3.24-4.23-5.65c-.47-.29-1.07-.64-1.82-1s-1.58-.92-2.59-1.47-2-1.08-2.93-1.6-1.87-1.06-2.77-1.55a19.11,19.11,0,0,1-7.21-7.12,20.07,20.07,0,0,1-2.33-9.67,16.82,16.82,0,0,1,2.42-8.9,18,18,0,0,1,6.3-6.21,16.34,16.34,0,0,1,8.51-2.33,16.56,16.56,0,0,1,8.63,2.33,17.9,17.9,0,0,1,6.26,6.3,16.72,16.72,0,0,1,2.38,8.81V192a.31.31,0,0,1-.35.35h-9.93a.31.31,0,0,1-.34-.35l-.09-7.25a6.83,6.83,0,0,0-1.94-5,6.31,6.31,0,0,0-4.62-2,6.12,6.12,0,0,0-4.66,2.08,6.93,6.93,0,0,0-1.95,4.92,9,9,0,0,0,1.21,4.83,12.13,12.13,0,0,0,4.53,3.71l1.6.87c.84.46,1.76,1,2.76,1.55s2,1.05,2.81,1.51l1.51.78a20.83,20.83,0,0,1,6.95,6,14.63,14.63,0,0,1,2.59,8.81,17.45,17.45,0,0,1-8.63,15.41,16.72,16.72,0,0,1-8.72,2.33Z"/><path id="path50" class="cls-1" d="M467.08,151h-8.85q-.69,0-.69-.6l-.08-60.22a.61.61,0,0,1,.69-.69h8l14.94,34.83-.43-34.14q0-.69.78-.69h8.76c.34,0,.52.23.52.69l.08,60.31c0,.34-.14.51-.43.51h-7.77l-15.32-32.55.65,31.86C467.91,150.77,467.63,151,467.08,151Z"/><path id="path52" class="cls-1" d="M449.25,151H420.67c-.23,0-.34-.14-.34-.43l.09-60.74a.3.3,0,0,1,.34-.34h28.41c.23,0,.34.14.34.43V99.8a.31.31,0,0,1-.34.35H431V114h18.13a.31.31,0,0,1,.34.35l.09,10a.31.31,0,0,1-.35.35H431v15.46h18.21c.23,0,.35.14.35.43v10.1a.31.31,0,0,1-.35.34Z"/><path id="path54" class="cls-1" d="M389.59,151h-9.93a.38.38,0,0,1-.43-.43l.17-60.74a.31.31,0,0,1,.35-.34h17q8.12,0,12.82,5t4.75,13.43a22.72,22.72,0,0,1-2.46,10.83,18.85,18.85,0,0,1-6.48,7.08,15.87,15.87,0,0,1-8.63,2.51H390v22.27a.38.38,0,0,1-.43.43Zm7.17-51-6.74.08v17.53h6.74a6.06,6.06,0,0,0,4.88-2.68,11.29,11.29,0,0,0,2.07-7,8.46,8.46,0,0,0-1.86-5.66,6.23,6.23,0,0,0-5.09-2.24Z"/><path id="path56" class="cls-1" d="M355.18,151.87a16.39,16.39,0,0,1-8.67-2.42,18.88,18.88,0,0,1-6.35-6.43,17.34,17.34,0,0,1-2.37-8.9l.08-28a16.72,16.72,0,0,1,2.38-8.85,17.67,17.67,0,0,1,6.3-6.35,16.33,16.33,0,0,1,8.63-2.42,16.1,16.1,0,0,1,8.68,2.38,17.89,17.89,0,0,1,6.22,6.39,16.9,16.9,0,0,1,2.37,8.85l.09,28a17.31,17.31,0,0,1-2.33,8.85,18.37,18.37,0,0,1-6.3,6.48A16.35,16.35,0,0,1,355.18,151.87Zm0-10.67a6.18,6.18,0,0,0,4.67-2.15,7.19,7.19,0,0,0,2-4.93l-.08-28a7.08,7.08,0,0,0-1.86-5,6.12,6.12,0,0,0-4.71-2,6.28,6.28,0,0,0-4.66,2,6.88,6.88,0,0,0-1.94,5v28a7.18,7.18,0,0,0,1.94,5A6.18,6.18,0,0,0,355.18,141.2Z"/></svg>