<svg id="Layer_1" data-name="Layer 1" xmlns="http://www.w3.org/2000/svg" viewBox="0 0 700 700"><defs><style>.cls-1{fill:#010101;}</style></defs><g id="g1"><path id="path6" class="cls-1" d="M391.83,63.2a248.12,248.12,0,0,0-81.09.27q-4.42.73-4.43,5.24l.09,207a2.46,2.46,0,0,0,2.78,2.79l124.13-.19a1.46,1.46,0,0,1,1.65,1.66V667.86a4.16,4.16,0,0,1-3.17,4q-73.95,17.8-156.51,0a1.38,1.38,0,0,1-1.07-1.35l-.06-249.43a2.19,2.19,0,0,1,2.5-2.48l36.23.19a1.35,1.35,0,0,1,1.53,1.53l.06,215.93a1.5,1.5,0,0,0,1.46,1.66,294.83,294.83,0,0,0,76.3-.68,2.46,2.46,0,0,0,2.14-2.45V320.55a1.5,1.5,0,0,0-1.49-1.5h0l-125.2-.14a1.74,1.74,0,0,1-1.74-1.75h0q-.51-137.21,0-272.44c0-3.54.15-7.25.39-11.16A2.63,2.63,0,0,1,268,31.14a79.22,79.22,0,0,1,16.5-5.33q71.13-14.43,148.9,2.64a2,2,0,0,1,1.62,2l0,198.86a2.14,2.14,0,0,1-2.14,2.14l-34.64.15a3.77,3.77,0,0,1-3.76-3.77l-.06-161.63a2.71,2.71,0,0,0-2.53-3Z"/><path id="path7" class="cls-1" d="M48.12,485.65C21.3,420.1,12.29,349.83,27.81,280.54c9.59-42.79,23.15-78.82,48-115.91a331.2,331.2,0,0,1,76-80.41c23.3-17.59,50.67-34.66,78.56-44.9,1-.36,1.56,0,1.56,1.08l0,619.68a1.19,1.19,0,0,1-1.19,1.2,1.17,1.17,0,0,1-.45-.09,410,410,0,0,1-40.38-19.68q-17.68-9.87-43.68-29.72-32.1-24.52-61.3-62.74C75.61,536.83,68.1,522.94,60,509.71a171.79,171.79,0,0,1-11.91-24.06ZM82.7,244.53Q43,351.51,83,456.35q20.9,54.67,64.69,101.5c12.19,13,26.33,23.35,39.71,34.57a1.56,1.56,0,0,0,2.19-.2,1.48,1.48,0,0,0,.35-1l0-479.92q0-5-4-2-47.16,35.73-76.33,82.1Q92.08,219.28,82.7,244.53Z"/><path id="path8" class="cls-1" d="M510.53,109.93V592.6a.89.89,0,0,0,.87.91.9.9,0,0,0,.53-.17,309.37,309.37,0,0,0,78.9-81.92c8.52-12.84,15.09-27.52,22.21-41.56,14.29-28.34,21.41-63.46,23.73-95.43a2.53,2.53,0,0,1,2.81-2.63l38.88-.1a1.32,1.32,0,0,1,1.32,1.32.49.49,0,0,1,0,.12Q670,494.51,589.94,580.92c-26.63,28.75-60.05,52.84-93.16,68.34q-12.42,5.82-24.46,11.53-2.81,1.34-2.81-1.78L468.75,40.3a1.25,1.25,0,0,1,1.74-1.16q81.71,34,133.57,98.55c22.05,27.46,39.52,60.25,54.64,92.71a2.58,2.58,0,0,1-1.22,3.43,2.45,2.45,0,0,1-1.1.24l-37,0a6.47,6.47,0,0,1-6.39-4.17q-26.38-59.41-78.4-104.68c-7.18-6.25-13.35-12.29-22.12-16.49-1.28-.61-1.92-.21-1.92,1.22Z"/></g></svg>